<?xml version="1.0" encoding="utf-8"?>
<!-- Generator: Adobe Illustrator 22.1.0, SVG Export Plug-In . SVG Version: 6.00 Build 0)  -->
<svg version="1.1" id="Layer_1" xmlns="http://www.w3.org/2000/svg" xmlns:xlink="http://www.w3.org/1999/xlink" x="0px" y="0px"
	 viewBox="0 0 253.2 114.2" style="enable-background:new 0 0 253.2 114.2;" xml:space="preserve">
<style type="text/css">
	.st0{fill:#FFFFFF;}
</style>
<g>
	<path class="st0" d="M29.5,15.7h7.2l16.4,46.2h-9.5l-4.8-14.4H25.1l-4.6,14.4h-7.7L29.5,15.7z M26.8,41.5h10.5l-5.1-16.7L26.8,41.5
		z"/>
	<path class="st0" d="M56.2,15.7h7.7v38.5c0,1,0.2,1.7,0.5,2.1c0.3,0.4,0.8,0.6,1.3,0.6c0.6,0,1.2-0.1,1.7-0.3
		c0.5-0.2,1-0.4,1.6-0.6l1.3,4c-0.5,0.3-1,0.6-1.6,0.9c-0.6,0.3-1.2,0.6-1.8,0.8c-0.6,0.2-1.3,0.4-2,0.5c-0.7,0.1-1.4,0.2-2,0.2
		c-0.8,0-1.7-0.1-2.4-0.3c-0.8-0.2-1.5-0.5-2.1-1c-0.6-0.5-1.1-1.2-1.5-2.1c-0.4-0.9-0.6-2-0.6-3.4V15.7z"/>
	<path class="st0" d="M73.6,15.7h7.7v38.5c0,1,0.2,1.7,0.5,2.1c0.3,0.4,0.8,0.6,1.3,0.6c0.6,0,1.2-0.1,1.7-0.3
		c0.5-0.2,1-0.4,1.6-0.6l1.3,4c-0.5,0.3-1,0.6-1.6,0.9c-0.6,0.3-1.2,0.6-1.8,0.8c-0.6,0.2-1.3,0.4-2,0.5c-0.7,0.1-1.4,0.2-2,0.2
		c-0.8,0-1.7-0.1-2.4-0.3c-0.8-0.2-1.5-0.5-2.1-1c-0.6-0.5-1.1-1.2-1.5-2.1c-0.4-0.9-0.6-2-0.6-3.4V15.7z"/>
	<path class="st0" d="M90.5,30.1h7.7v31.8h-7.7V30.1z"/>
	<path class="st0" d="M104.6,34.4c1.7-1.5,3.7-2.7,6-3.6c2.3-0.9,4.7-1.3,7.3-1.3c1.7,0,3.4,0.2,4.9,0.6c1.6,0.4,3,1,4.2,1.8
		c1.2,0.8,2.2,1.8,2.9,3.1c0.7,1.3,1.1,2.8,1.1,4.5v14.2c0,0.7,0,1.3,0.1,1.7c0.1,0.5,0.2,0.8,0.4,1.1c0.2,0.3,0.4,0.5,0.7,0.6
		c0.3,0.1,0.7,0.2,1.1,0.2c0.2,0,0.5,0,0.9-0.1c0.4-0.1,0.8-0.1,1.2-0.2l0.8,3.4c-0.5,0.3-1,0.6-1.4,0.8c-0.5,0.3-1,0.5-1.6,0.7
		c-0.6,0.2-1.2,0.3-1.8,0.5c-0.7,0.1-1.4,0.2-2.2,0.2c-1.5,0-2.7-0.3-3.7-1c-1-0.7-1.6-1.6-1.9-2.9c-0.8,0.8-1.7,1.4-2.6,1.9
		c-0.9,0.5-1.8,0.9-2.7,1.2c-0.9,0.3-1.8,0.5-2.7,0.6c-0.9,0.1-1.8,0.2-2.6,0.2c-1.4,0-2.7-0.2-3.9-0.6c-1.1-0.4-2.1-0.9-2.9-1.7
		c-0.8-0.7-1.4-1.7-1.9-2.7c-0.4-1.1-0.6-2.4-0.6-3.8c0-1.6,0.3-3.1,0.8-4.3s1.2-2.3,2.1-3.2c0.9-0.9,1.9-1.6,3.2-2.2
		c1.2-0.6,2.6-1,4-1.4c1.4-0.3,3-0.6,4.6-0.7c1.6-0.1,3.3-0.2,4.9-0.2v-1.1c0-1-0.1-1.9-0.4-2.7c-0.3-0.7-0.7-1.4-1.2-1.8
		c-0.5-0.5-1.1-0.8-1.9-1c-0.7-0.2-1.5-0.3-2.4-0.3c-0.7,0-1.5,0.1-2.1,0.2c-0.7,0.1-1.3,0.4-2,0.7c-0.7,0.3-1.4,0.8-2.1,1.3
		c-0.7,0.5-1.5,1.2-2.4,2.1L104.6,34.4z M123.2,45.3c-2.3,0.1-4.2,0.3-5.6,0.7c-1.5,0.4-2.6,0.9-3.5,1.5c-0.9,0.6-1.4,1.4-1.8,2.2
		c-0.3,0.9-0.5,1.8-0.5,2.8c0,0.9,0.1,1.6,0.3,2.2c0.2,0.6,0.5,1,0.8,1.4c0.4,0.4,0.8,0.6,1.3,0.8c0.5,0.1,1.1,0.2,1.7,0.2
		c0.6,0,1.1,0,1.7-0.1c0.6-0.1,1.2-0.2,1.8-0.3c0.6-0.2,1.2-0.4,1.9-0.7c0.6-0.3,1.3-0.7,1.9-1.1V45.3z"/>
	<path class="st0" d="M141,35.5c0-0.6,0-1.4,0-2.4c0-1-0.1-2-0.3-3h7.2c0.1,0.1,0.1,0.3,0.2,0.6c0.1,0.2,0.1,0.5,0.2,0.8
		c0.1,0.3,0.1,0.6,0.2,0.9c0,0.3,0.1,0.6,0.1,0.8c0.5-0.4,1-0.9,1.7-1.3c0.7-0.4,1.4-0.8,2.2-1.2c0.8-0.3,1.7-0.6,2.6-0.8
		c0.9-0.2,1.9-0.3,2.9-0.3c1.7,0,3.2,0.3,4.6,0.8c1.4,0.5,2.7,1.2,3.7,2.2c1.1,1,1.9,2.1,2.5,3.5c0.6,1.4,0.9,3,0.9,4.7v21.1h-7.7
		V42.3c0-1.3-0.1-2.4-0.4-3.2c-0.3-0.9-0.6-1.6-1.1-2.1c-0.5-0.5-1.1-0.9-1.8-1.2c-0.7-0.2-1.6-0.4-2.5-0.4c-0.6,0-1.1,0-1.8,0.1
		c-0.6,0.1-1.3,0.2-1.9,0.4c-0.7,0.2-1.3,0.4-1.9,0.6c-0.6,0.2-1.2,0.5-1.8,0.8v24.6H141V35.5z"/>
	<path class="st0" d="M204.1,56.5c-0.9,1.3-1.8,2.3-2.8,3c-1,0.8-2.1,1.4-3.2,1.8c-1.1,0.4-2.2,0.7-3.4,0.8
		c-1.2,0.1-2.4,0.2-3.6,0.2c-2.8,0-5.2-0.5-7.2-1.4c-2-0.9-3.6-2.1-4.9-3.7c-1.3-1.5-2.2-3.2-2.8-5.2c-0.6-1.9-0.9-3.9-0.9-5.9
		c0-2.4,0.4-4.6,1.1-6.6c0.7-2,1.7-3.8,3.1-5.3s3.1-2.6,5.1-3.5c2.1-0.8,4.4-1.3,7.2-1.3c1.1,0,2.1,0,3.1,0.1c1,0.1,2,0.3,2.9,0.6
		c0.9,0.3,1.8,0.7,2.7,1.2c0.9,0.5,1.7,1.1,2.5,1.9l-4.8,4.9c-0.6-0.6-1.1-1.1-1.6-1.5c-0.5-0.4-1-0.8-1.5-1
		c-0.5-0.3-1.1-0.5-1.7-0.6c-0.6-0.1-1.2-0.2-2-0.2c-1.4,0-2.6,0.3-3.6,0.9s-1.8,1.4-2.5,2.4c-0.7,1-1.1,2.1-1.4,3.4
		c-0.3,1.2-0.5,2.5-0.5,3.7c0,1.6,0.2,3.1,0.5,4.5c0.3,1.4,0.8,2.6,1.5,3.6c0.7,1,1.5,1.8,2.5,2.4c1,0.6,2.2,0.9,3.7,0.9
		c0.7,0,1.3-0.1,1.9-0.2c0.6-0.1,1.2-0.3,1.8-0.7c0.6-0.3,1.2-0.8,1.8-1.3c0.6-0.6,1.2-1.3,1.8-2.2L204.1,56.5z"/>
	<path class="st0" d="M236.7,56.6c-1.2,1.3-2.4,2.3-3.5,3.1c-1.1,0.8-2.3,1.4-3.4,1.8s-2.3,0.7-3.4,0.8c-1.2,0.1-2.4,0.2-3.6,0.2
		c-2.7,0-5-0.5-7-1.4c-1.9-0.9-3.5-2.2-4.7-3.8c-1.2-1.6-2.1-3.4-2.7-5.4c-0.6-2-0.9-4.2-0.9-6.4c0-2.1,0.3-4.2,0.9-6.1
		c0.6-1.9,1.5-3.6,2.7-5.1c1.2-1.5,2.8-2.7,4.6-3.5c1.9-0.9,4-1.3,6.6-1.3c2.2,0,4.2,0.3,5.9,0.9c1.7,0.6,3.1,1.5,4.2,2.6
		c1.1,1.1,2,2.5,2.6,4.1s0.9,3.4,0.9,5.4c0,0.8,0,1.6-0.1,2.4c0,0.8-0.2,1.7-0.3,2.6h-19.9c0,0.9,0.2,1.9,0.5,3
		c0.3,1.1,0.8,2.1,1.5,3.1c0.6,1,1.4,1.8,2.4,2.4c0.9,0.6,2,1,3.2,1c1.1,0,2-0.1,2.8-0.2c0.8-0.2,1.5-0.4,2.2-0.8
		c0.7-0.4,1.3-0.8,1.9-1.4c0.6-0.6,1.3-1.3,2-2.2L236.7,56.6z M221.8,35.3c-1.2,0-2.3,0.2-3.1,0.6c-0.8,0.4-1.4,1-1.9,1.7
		c-0.5,0.7-0.8,1.5-1,2.4c-0.2,0.9-0.3,1.8-0.3,2.8h12.2c0-0.8-0.1-1.7-0.2-2.6c-0.1-0.9-0.4-1.7-0.8-2.4s-1-1.3-1.8-1.8
		C224.2,35.6,223.1,35.3,221.8,35.3z"/>
</g>
<g>
	<path class="st0" d="M107.1,82.9v10h-2.6V69.2h6.5c2.4,0,4.3,0.6,5.7,1.8c1.3,1.2,2,2.9,2,5.1c0,1.8-0.8,3.4-2.3,4.8
		c-1.5,1.4-3.8,2.1-6.6,2.1H107.1z M107.1,81h2.5c1.9,0,3.5-0.5,4.6-1.4c1.1-0.9,1.7-2.2,1.7-3.7c0-1.6-0.5-2.8-1.4-3.6
		c-0.9-0.8-2.4-1.1-4.5-1.1h-2.9V81z"/>
	<path class="st0" d="M121.5,69.2h2.4v8.7c0.5-0.3,1.3-0.7,2.2-1c0.9-0.3,1.9-0.5,3-0.5c1.7,0,3,0.5,4,1.5c0.9,1,1.4,2.3,1.4,4V93
		h-2.4l0-11c0-1.2-0.3-2.1-0.9-2.7c-0.6-0.6-1.5-1-2.7-1c-0.8,0-1.6,0.1-2.4,0.4c-0.8,0.3-1.5,0.6-2.2,0.9V93h-2.4V69.2z"/>
	<path class="st0" d="M138.5,78.6c0.4-0.3,0.8-0.7,1.3-0.9c0.5-0.3,1-0.5,1.6-0.7c0.6-0.2,1.1-0.4,1.7-0.5c0.6-0.1,1.2-0.2,1.8-0.2
		c1.7,0,3,0.4,4,1.3c1,0.8,1.5,2,1.5,3.5v7.3c0,0.6,0,1.1,0.1,1.5c0,0.4,0.1,0.7,0.2,0.9c0.1,0.2,0.2,0.4,0.4,0.5
		c0.2,0.1,0.4,0.1,0.7,0.1c0.3,0,0.7,0,1-0.1l0.4,1.1c-0.3,0.3-0.7,0.5-1.2,0.6c-0.5,0.2-1,0.2-1.6,0.2c-0.6,0-1.2-0.2-1.5-0.7
		c-0.4-0.5-0.6-1.1-0.8-1.9c-0.9,0.8-1.8,1.4-2.8,1.9c-1,0.5-2.1,0.7-3.3,0.7c-0.6,0-1.2-0.1-1.8-0.3s-1-0.5-1.4-0.8
		c-0.4-0.4-0.7-0.8-0.9-1.3c-0.2-0.5-0.3-1.1-0.3-1.8c0-0.9,0.2-1.6,0.5-2.3s0.8-1.2,1.3-1.7c0.6-0.5,1.2-0.8,1.9-1.1
		c0.7-0.3,1.5-0.5,2.2-0.7c0.8-0.2,1.5-0.3,2.3-0.3c0.8-0.1,1.5-0.1,2.1-0.1v-1.7c0-1.1-0.3-1.9-0.8-2.3s-1.3-0.7-2.3-0.7
		c-0.6,0-1.1,0.1-1.6,0.2c-0.5,0.1-0.9,0.3-1.4,0.5c-0.4,0.2-0.8,0.4-1.2,0.7c-0.4,0.2-0.7,0.5-1,0.7L138.5,78.6z M148,84.4
		c-1.4,0-2.6,0.2-3.6,0.4s-1.8,0.5-2.4,0.9c-0.6,0.4-1.1,0.8-1.4,1.3c-0.3,0.5-0.5,1.1-0.5,1.7c0,0.9,0.2,1.5,0.7,1.9
		c0.5,0.4,1.2,0.6,2,0.6c0.5,0,0.9-0.1,1.4-0.2c0.5-0.1,0.9-0.2,1.3-0.4c0.4-0.2,0.9-0.4,1.3-0.6c0.4-0.2,0.8-0.5,1.1-0.8V84.4z"/>
	<path class="st0" d="M157.1,76.6c0.1,0.3,0.1,0.6,0.2,1.1c0,0.4,0.1,1,0.1,1.7c0.8-0.9,1.7-1.7,2.7-2.2c1-0.5,2.1-0.8,3.3-0.8
		c0.1,0,0.3,0,0.4,0c0.1,0,0.3,0,0.3,0.1l-0.5,2.5c-0.3-0.1-0.7-0.1-1.2-0.1c-1.3,0-2.5,0.3-3.4,0.9c-0.9,0.6-1.5,1.2-1.7,1.8V93
		h-2.4V78.8c0-1.3-0.1-2.1-0.1-2.3H157.1z"/>
	<path class="st0" d="M168,76.6c0.1,0.3,0.2,0.7,0.2,1.2c0.3-0.2,0.6-0.3,1-0.5c0.4-0.2,0.8-0.3,1.2-0.5c0.4-0.1,0.9-0.3,1.4-0.4
		c0.5-0.1,1-0.1,1.4-0.1c0.8,0,1.6,0.1,2.2,0.4c0.6,0.3,1.2,0.7,1.6,1.3c2-1.1,3.9-1.7,5.8-1.7c0.8,0,1.4,0.1,2,0.4s1,0.6,1.4,1.1
		c0.4,0.5,0.6,1,0.8,1.6c0.2,0.6,0.3,1.3,0.3,2V93H185V81.5c0-0.6-0.1-1-0.2-1.4c-0.1-0.4-0.4-0.8-0.6-1c-0.3-0.3-0.6-0.5-0.9-0.6
		c-0.4-0.1-0.7-0.2-1.1-0.2c-1.5,0-2.9,0.4-4.3,1.1c0.1,0.6,0.2,1.3,0.2,2V93h-2.4V81.6c0-1.1-0.3-2-0.8-2.5
		c-0.5-0.5-1.2-0.8-2.2-0.8c-0.8,0-1.5,0.1-2.3,0.4c-0.7,0.2-1.4,0.5-2.1,0.9V93h-2.4V78.5c0-0.7-0.1-1.3-0.1-1.9H168z"/>
	<path class="st0" d="M192,78.6c0.4-0.3,0.8-0.7,1.3-0.9s1-0.5,1.6-0.7c0.6-0.2,1.1-0.4,1.7-0.5c0.6-0.1,1.2-0.2,1.8-0.2
		c1.7,0,3,0.4,4,1.3s1.5,2,1.5,3.5v7.3c0,0.6,0,1.1,0.1,1.5c0,0.4,0.1,0.7,0.2,0.9c0.1,0.2,0.2,0.4,0.4,0.5c0.2,0.1,0.4,0.1,0.7,0.1
		c0.3,0,0.7,0,1-0.1l0.4,1.1c-0.3,0.3-0.7,0.5-1.2,0.6c-0.5,0.2-1,0.2-1.6,0.2c-0.6,0-1.2-0.2-1.5-0.7c-0.4-0.5-0.6-1.1-0.8-1.9
		c-0.9,0.8-1.8,1.4-2.8,1.9c-1,0.5-2.1,0.7-3.3,0.7c-0.6,0-1.2-0.1-1.8-0.3s-1-0.5-1.4-0.8c-0.4-0.4-0.7-0.8-0.9-1.3
		c-0.2-0.5-0.3-1.1-0.3-1.8c0-0.9,0.2-1.6,0.5-2.3s0.8-1.2,1.3-1.7c0.6-0.5,1.2-0.8,1.9-1.1c0.7-0.3,1.5-0.5,2.2-0.7
		c0.8-0.2,1.5-0.3,2.3-0.3c0.8-0.1,1.5-0.1,2.1-0.1v-1.7c0-1.1-0.3-1.9-0.8-2.3c-0.6-0.5-1.3-0.7-2.3-0.7c-0.6,0-1.1,0.1-1.6,0.2
		c-0.5,0.1-0.9,0.3-1.4,0.5c-0.4,0.2-0.8,0.4-1.2,0.7c-0.4,0.2-0.7,0.5-1,0.7L192,78.6z M201.6,84.4c-1.4,0-2.6,0.2-3.6,0.4
		c-1,0.2-1.8,0.5-2.4,0.9c-0.6,0.4-1.1,0.8-1.4,1.3c-0.3,0.5-0.5,1.1-0.5,1.7c0,0.9,0.2,1.5,0.7,1.9c0.5,0.4,1.2,0.6,2,0.6
		c0.5,0,0.9-0.1,1.4-0.2c0.5-0.1,0.9-0.2,1.3-0.4c0.4-0.2,0.9-0.4,1.3-0.6c0.4-0.2,0.8-0.5,1.1-0.8V84.4z"/>
	<path class="st0" d="M222,90.3c-0.6,0.9-1.4,1.6-2.4,2.1c-1,0.5-2.2,0.8-3.8,0.8c-2.3,0-4.1-0.8-5.4-2.4c-1.3-1.6-2-3.6-2-6.1
		c0-2.4,0.7-4.4,2-6c1.4-1.6,3.2-2.4,5.5-2.4c1.4,0,2.5,0.2,3.3,0.6c0.9,0.4,1.6,1,2.1,1.6l-1.6,1.4c-0.5-0.7-1.1-1.2-1.7-1.5
		c-0.6-0.3-1.4-0.5-2.3-0.5c-1.5,0-2.7,0.6-3.5,1.8c-0.9,1.2-1.3,2.7-1.3,4.6c0,1.9,0.5,3.6,1.4,4.9c0.9,1.4,2.1,2,3.5,2
		c1.2,0,2.1-0.2,2.7-0.6c0.6-0.4,1.2-1,1.7-1.7L222,90.3z"/>
	<path class="st0" d="M230.6,89.7l4.3-13.1h2.6L231,94.2c-0.4,0.9-0.7,1.8-1.1,2.5c-0.4,0.7-0.8,1.3-1.3,1.8c-0.5,0.5-1,0.9-1.7,1.1
		c-0.6,0.3-1.4,0.4-2.4,0.4c-0.7,0-1.6-0.1-2.5-0.3l0.4-2.3c0.6,0.3,1.3,0.4,1.9,0.4c0.6,0,1.2-0.1,1.6-0.3c0.4-0.2,0.8-0.5,1.1-0.9
		c0.3-0.4,0.6-0.8,0.9-1.4c0.2-0.5,0.5-1.2,0.8-1.9c0.2-0.4,0.3-0.9,0.4-1.5l-6.2-15.3h2.6L230.6,89.7z"/>
</g>
</svg>
