<?xml version="1.0" encoding="UTF-8"?>
<svg width="65px" height="43px" viewBox="0 0 65 43" version="1.1" xmlns="http://www.w3.org/2000/svg" xmlns:xlink="http://www.w3.org/1999/xlink">
    <!-- Generator: Sketch 52.2 (67145) - http://www.bohemiancoding.com/sketch -->
    <title>Group 27</title>
    <desc>Created with Sketch.</desc>
    <g id="Alliance-ShopEssentials" stroke="none" stroke-width="1" fill="none" fill-rule="evenodd" stroke-linecap="round" stroke-linejoin="round">
        <g id="ALLIANCE-SHOPPING-SpecificProduct" transform="translate(-1074.000000, -1300.000000)" stroke="#FFFFFF" stroke-width="2">
            <g id="FOOTER" transform="translate(0.000000, 927.000000)">
                <g id="Refill-Reminders-Copy" transform="translate(1075.000000, 345.000000)">
                    <g id="Group-27" transform="translate(0.000000, 29.000000)">
                        <path d="M37.7017456,14 C35.9939722,17.5125792 34.612959,23.2720349 34.0328287,25.9148554 C33.8633327,26.6863769 34.3683257,27.4435222 35.1290188,27.5561355 C36.4593579,27.75261 38.6121309,28 41.0060424,28 C43.3685011,28 45.5288461,27.752011 46.8696695,27.5555365 C47.6373521,27.4429232 48.1411802,26.6761937 47.9646947,25.8998802 C47.3700028,23.279822 45.9785054,17.6227965 44.3103393,14" id="Stroke-1"></path>
                        <path d="M32,18.7087887 C32.5945832,15.6768738 34.2907831,8.42976783 39.0997271,8.42976783 L39.0997271,7.94072948 C36.6168381,7.94072948 36.8133529,5.83651297 36.8133529,4.18140076 C36.8133529,1.87321348 38.6443418,0 40.8148226,0 C42.9853034,0 44.8169221,1.87321348 44.8169221,4.18140076 C44.8169221,5.83651297 45.2370355,7.94072948 42.5299181,7.94072948 L42.5299181,8.42731035 C47.2922528,8.42731035 49.3474701,15.8753153 50,19" id="Stroke-3"></path>
                        <path d="M40.5,28 L40.5,37" id="Stroke-5"></path>
                        <path d="M36.0087237,28 C36.0087237,28 35.9044803,32.4994334 36.4166888,35.1250944 C36.617454,36.1568874 37.5402016,37 38.8683403,37 L40.5034181,37 L42.1384959,37 C43.4666346,37 44.4086865,36.1591539 44.5901473,35.1250944 C45.0515211,32.4994334 44.9981124,28 44.9981124,28" id="Stroke-7"></path>
                        <path d="M53.1038486,25 C52.6145279,31.5330657 54.0132657,39.0354503 54.0132657,39.0354503 C54.0336258,39.5719736 54.6349269,40 55.3692472,40 L56.7265861,40 L58.0832464,40 C58.8175667,40 59.4188678,39.5719736 59.4392279,39.0354503 C59.4392279,39.0354503 60.344573,34.718822 59.8545736,28.323464" id="Stroke-9"></path>
                        <path d="M56.5,32 L56.5,40" id="Stroke-11"></path>
                        <path d="M63,29 C63,28.1246683 62.7707444,26.6388836 62.5384722,25.0286676 C62.3273158,23.5632108 61.1762112,22.1667456 58.221227,21.9659306 L58.2133841,21.6634761 C59.1044645,21.1786865 59.7198348,20.1622915 59.7198348,18.9832733 C59.7198348,17.3354814 58.5204659,16 57.0411639,16 C55.5618619,16 54.362493,17.3354814 54.362493,18.9832733 C54.362493,20.1635235 54.9784667,21.1805345 55.8707537,21.6647081 L55.8592909,21.9671626 C52.9368851,22.1747536 51.8569705,22.301649 51.0545758,21.6634761 C50.3782718,21.1244788 50.1930574,19.0602729 50,18.432572" id="Stroke-13"></path>
                        <path d="M9.99798515,34 C10.0184064,37.4183895 9.87686586,39.9308034 9.87686586,39.9308034 C9.85574041,40.5255357 9.23183526,41 8.46920629,41 L6.43764158,41 L4.52930869,41 C3.7673839,41 3.14418294,40.5255357 3.1223533,39.9308034 C3.1223533,39.9308034 2.88786074,37.6589257 3.0681313,34" id="Stroke-15"></path>
                        <path d="M6.5,34 L6.5,41" id="Stroke-17"></path>
                        <path d="M17.5,14 L17.5,34.9141338 C17.5,36.0659232 18.7306977,37 20.25,37 L25.75,37 C27.2693023,37 28.5,36.0659232 28.5,34.9141338 L28.5,14" id="Stroke-19"></path>
                        <path d="M23,23 L23,36" id="Stroke-21"></path>
                        <path d="M0,26 C0.190176657,25.6592078 0.666598591,24.6368313 1.29463903,23.837168 C2.06906974,22.8522026 2.76180946,21.9964226 5.06288165,21.7316218 L5.07137751,21.4446081 C4.10611661,20.9845679 3.44017155,20.0206463 3.44017155,18.9012346 C3.44017155,17.33815 4.73873175,16.0702628 6.34118248,16.0702628 C7.94363321,16.0702628 9.24350046,17.33815 9.24350046,18.9012346 C9.24350046,20.0212308 8.57559481,20.9863215 7.60968038,21.4457772 L7.62144389,21.7327909 C10.7871337,21.929784 11.470724,21.7438973 12.3399163,21.1377198 C13.0725212,20.6268238 13.7110181,19.6558876 13.7110181,18.3359755 C13.7110181,18.3359755 13.7175534,16.9260428 13.7175534,13.3030069 C13.7175534,10.8870651 15.4722761,9.05450337 20.60966,8.72657127 L20.60966,8.28114478 C19.2999898,7.65859989 18.8523231,6.35154789 18.8523231,4.83405817 C18.8523231,2.71740554 20.6116205,1 22.7819871,1 L22.9355662,1 C25.1052793,1 26.8652303,2.71740554 26.8652303,4.83405817 C26.8652303,6.35154789 26.4175636,7.65859989 25.1078934,8.28114478 L25.1078934,8.72657127 C30.2452772,9.05450337 32,10.8870651 32,13.3030069 L32,19.1531753" id="Stroke-23"></path>
                        <path d="M4.50025419,25.1116848 C2.44509405,28.1508893 1,33 1,33 L13,33 C13,33 11.8881546,28.7070186 9.66598882,25" id="Stroke-25"></path>
                    </g>
                </g>
            </g>
        </g>
    </g>
</svg>