<?xml version="1.0" encoding="utf-8"?>
<!-- Generator: Adobe Illustrator 23.0.1, SVG Export Plug-In . SVG Version: 6.00 Build 0)  -->
<svg version="1.1" id="Layer_1" xmlns="http://www.w3.org/2000/svg" xmlns:xlink="http://www.w3.org/1999/xlink" x="0px" y="0px"
	 viewBox="0 0 291.9 189.4" style="enable-background:new 0 0 291.9 189.4;" xml:space="preserve">
<style type="text/css">
	.st0{fill:#FFFFFF;}
</style>
<g>
	<g>
		<path class="st0" d="M55.2,72.4v49.2c0,0.7-0.4,1.1-1.1,1.1h-7.9c-0.7,0-1.1-0.4-1.1-1.1V92.4l-11.9,29.5
			c-0.2,0.6-0.7,0.9-1.3,0.9h-7.1c-0.6,0-1.1-0.3-1.3-0.9L11.6,92.4v29.2c0,0.7-0.4,1.1-1.1,1.1H2.6c-0.7,0-1.1-0.4-1.1-1.1V72.4
			c0-0.7,0.4-1.1,1.1-1.1h9c0.6,0,1.1,0.2,1.3,0.7l15.4,39.2L43.7,72c0.2-0.5,0.7-0.7,1.3-0.7h9C54.8,71.3,55.2,71.7,55.2,72.4z"/>
		<path class="st0" d="M94.1,108.3h-23c1,4.8,4.6,7.5,10.3,7.5c2.9,0,5.1-0.7,7.6-2.5c0.7-0.4,1.1-0.4,1.6,0.1l3.2,3.2
			c0.5,0.5,0.5,1-0.1,1.6c-3.5,3.5-8.2,5.5-13.4,5.5c-11.2,0-19-8.3-19-18.9S69,85.9,79.4,85.9s17.1,8.3,17.1,18.1
			C96.7,106.9,96.3,108.3,94.1,108.3z M70.9,102h17.2c-0.7-5.1-4.1-7.9-8.4-7.9C75.3,94.2,71.7,96.9,70.9,102z"/>
		<path class="st0" d="M138.3,70.2v51.4c0,0.7-0.4,1.1-1.1,1.1h-6.8c-0.7,0-1-0.4-1.1-1.1l-0.3-3.1c-2.6,3-6.2,5.1-10.9,5.1
			c-10.1,0-17.4-8.4-17.4-18.9s7.3-18.9,17.4-18.9c4.3,0,7.8,1.9,10.4,4.7V70.2c0-0.7,0.4-1.1,1.1-1.1h7.5
			C137.9,69.1,138.3,69.5,138.3,70.2z M128.5,104.7c0-5.4-3.9-10-9.2-10c-5.4,0-9.3,4.3-9.3,10c0,5.8,3.9,10.1,9.3,10.1
			C124.6,114.9,128.5,110.2,128.5,104.7z"/>
	</g>
	<g>
		<path class="st0" d="M179.7,87c0,8.9-5.9,15.7-16.8,15.7H153v18.9c0,0.7-0.4,1.1-1.1,1.1h-2.4c-0.7,0-1.1-0.4-1.1-1.1V72.4
			c0-0.7,0.4-1.1,1.1-1.1h13.4C173.9,71.3,179.7,78.1,179.7,87z M175.3,87c0-8.2-5.5-11.4-12.6-11.4H153v22.8h9.6
			C169.7,98.4,175.3,95.2,175.3,87z"/>
		<path class="st0" d="M216.4,87.8v33.8c0,0.7-0.4,1.1-1.1,1.1h-2c-0.7,0-1-0.4-1.1-1.1l-0.4-4.8c-2.8,4.1-7.3,6.8-13.2,6.8
			c-10.4,0-17.7-8.3-17.7-18.8S188.3,86,198.7,86c5.9,0,10.4,2.6,13.2,6.8l0.3-5c0.1-0.7,0.4-1.1,1.1-1.1h2
			C216,86.7,216.4,87.2,216.4,87.8z M212.3,107.9l0.1-3.1l-0.1-3.2C211,95,205.8,90,199,90c-7.9,0-13.7,6.3-13.7,14.8
			s5.8,14.8,13.7,14.8C205.8,119.6,211,114.5,212.3,107.9z"/>
		<path class="st0" d="M252,114.7c0.6-0.6,1.1-0.5,1.6,0l1.2,1c0.4,0.4,0.5,1,0.1,1.5c-3.4,3.9-8.1,6.4-14,6.4
			c-10.4,0-18-8.3-18-18.9s7.6-18.9,18-18.9c5.7,0,10.4,2.5,13.7,6.4c0.4,0.5,0.4,1.1-0.1,1.5l-1.2,1c-0.5,0.5-1,0.6-1.6,0.1
			c-2.1-2-4.6-5-10.9-5c-8.1,0-13.7,6.4-13.7,14.9s5.7,14.9,13.7,14.9C247.3,119.7,249.9,116.9,252,114.7z"/>
		<path class="st0" d="M290.4,122.7h-2.6c-0.6,0-1-0.1-1.3-0.7l-13.6-17.3l-7.3,7.6v9.3c0,0.7-0.4,1.1-1.1,1.1h-2.2
			c-0.7,0-1.1-0.4-1.1-1.1V70.2c0-0.7,0.4-1.1,1.1-1.1h2.2c0.7,0,1.1,0.4,1.1,1.1v37l19-19.8c0.4-0.4,0.9-0.6,1.4-0.6h2.5
			c1,0,1.2,0.6,0.6,1.3l-13.5,14l15.6,19.4C291.6,122.1,291.3,122.7,290.4,122.7z"/>
	</g>
</g>
<polygon class="st0" points="230.3,1 55.3,1 45,1 45,11.2 45,57.9 55.3,57.9 55.3,11.2 230.3,11.2 230.3,57.9 240.5,57.9 
	240.5,11.2 240.5,1 "/>
<polygon class="st0" points="55.3,188.6 230.3,188.6 240.5,188.6 240.5,178.4 240.5,135.9 230.3,135.9 230.3,178.4 55.3,178.4 
	55.3,135.9 45,135.9 45,178.4 45,188.6 "/>
<g>
	<path class="st0" d="M103.9,38.9h2.9l6.7,18.9h-3.9l-2-5.9H102l-1.9,5.9H97L103.9,38.9z M102.8,49.4h4.3l-2.1-6.8L102.8,49.4z"/>
	<path class="st0" d="M114.8,38.9h3.1v15.7c0,0.4,0.1,0.7,0.2,0.9s0.3,0.3,0.5,0.3c0.3,0,0.5,0,0.7-0.1s0.4-0.2,0.6-0.3l0.5,1.6
		c-0.2,0.1-0.4,0.3-0.7,0.4c-0.2,0.1-0.5,0.2-0.7,0.3c-0.3,0.1-0.5,0.2-0.8,0.2c-0.3,0.1-0.6,0.1-0.8,0.1c-0.3,0-0.7,0-1-0.1
		s-0.6-0.2-0.9-0.4c-0.2-0.2-0.4-0.5-0.6-0.8c-0.2-0.4-0.2-0.8-0.2-1.4V38.9H114.8z"/>
	<path class="st0" d="M121.9,38.9h3.1v15.7c0,0.4,0.1,0.7,0.2,0.9s0.3,0.3,0.5,0.3c0.3,0,0.5,0,0.7-0.1s0.4-0.2,0.6-0.3l0.5,1.6
		c-0.2,0.1-0.4,0.3-0.7,0.4c-0.2,0.1-0.5,0.2-0.7,0.3s-0.5,0.2-0.8,0.2c-0.3,0.1-0.6,0.1-0.8,0.1c-0.3,0-0.7,0-1-0.1
		s-0.6-0.2-0.9-0.4c-0.2-0.2-0.4-0.5-0.6-0.8c-0.2-0.4-0.2-0.8-0.2-1.4V38.9H121.9z"/>
	<path class="st0" d="M128.8,44.8h3.1v13h-3.1V44.8z"/>
	<path class="st0" d="M134.5,46.5c0.7-0.6,1.5-1.1,2.4-1.4c0.9-0.3,1.9-0.5,3-0.5c0.7,0,1.4,0.1,2,0.2c0.6,0.2,1.2,0.4,1.7,0.7
		s0.9,0.8,1.2,1.3s0.4,1.1,0.4,1.8v5.8c0,0.3,0,0.5,0,0.7s0.1,0.3,0.2,0.4c0.1,0.1,0.2,0.2,0.3,0.2s0.3,0.1,0.4,0.1
		c0.1,0,0.2,0,0.4,0s0.3-0.1,0.5-0.1l0.3,1.4c-0.2,0.1-0.4,0.2-0.6,0.3s-0.4,0.2-0.6,0.3c-0.2,0.1-0.5,0.1-0.7,0.2
		c-0.3,0-0.6,0.1-0.9,0.1c-0.6,0-1.1-0.1-1.5-0.4c-0.4-0.3-0.7-0.7-0.8-1.2c-0.3,0.3-0.7,0.6-1,0.8s-0.7,0.4-1.1,0.5
		c-0.4,0.1-0.7,0.2-1.1,0.3c-0.4,0-0.7,0.1-1.1,0.1c-0.6,0-1.1-0.1-1.6-0.2c-0.5-0.2-0.9-0.4-1.2-0.7s-0.6-0.7-0.8-1.1
		c-0.2-0.4-0.3-1-0.3-1.6c0-0.7,0.1-1.2,0.3-1.7s0.5-0.9,0.8-1.3c0.4-0.4,0.8-0.7,1.3-0.9s1-0.4,1.6-0.6c0.6-0.1,1.2-0.2,1.9-0.3
		s1.3-0.1,2-0.1v-0.5c0-0.4-0.1-0.8-0.2-1.1c-0.1-0.3-0.3-0.6-0.5-0.7c-0.2-0.2-0.5-0.3-0.8-0.4c-0.3-0.1-0.6-0.1-1-0.1
		c-0.3,0-0.6,0-0.9,0.1c-0.3,0.1-0.5,0.1-0.8,0.3c-0.3,0.1-0.6,0.3-0.9,0.5c-0.3,0.2-0.6,0.5-1,0.8L134.5,46.5z M142.1,51
		c-0.9,0-1.7,0.1-2.3,0.3s-1.1,0.4-1.4,0.6c-0.3,0.3-0.6,0.6-0.7,0.9c-0.1,0.3-0.2,0.7-0.2,1.1c0,0.4,0,0.6,0.1,0.9
		c0.1,0.2,0.2,0.4,0.3,0.6c0.1,0.1,0.3,0.2,0.5,0.3s0.4,0.1,0.7,0.1c0.2,0,0.5,0,0.7,0s0.5-0.1,0.7-0.1c0.2-0.1,0.5-0.2,0.8-0.3
		s0.5-0.3,0.8-0.5L142.1,51L142.1,51z"/>
	<path class="st0" d="M149.4,47c0-0.3,0-0.6,0-1s-0.1-0.8-0.1-1.2h2.9c0,0.1,0,0.1,0.1,0.2s0,0.2,0.1,0.3c0,0.1,0.1,0.2,0.1,0.4
		c0,0.1,0,0.2,0.1,0.3c0.2-0.2,0.4-0.4,0.7-0.5c0.3-0.2,0.6-0.3,0.9-0.5c0.3-0.1,0.7-0.3,1.1-0.3c0.4-0.1,0.8-0.1,1.2-0.1
		c0.7,0,1.3,0.1,1.9,0.3c0.6,0.2,1.1,0.5,1.5,0.9s0.8,0.9,1,1.4c0.2,0.6,0.4,1.2,0.4,1.9v8.6h-3.1v-8c0-0.5-0.1-1-0.2-1.3
		c-0.1-0.4-0.3-0.7-0.5-0.9s-0.5-0.4-0.8-0.5s-0.6-0.1-1-0.1c-0.2,0-0.5,0-0.7,0.1c-0.3,0-0.5,0.1-0.8,0.2c-0.3,0.1-0.5,0.2-0.8,0.3
		s-0.5,0.2-0.7,0.3v10h-3.1V47H149.4z"/>
	<path class="st0" d="M175.1,55.5c-0.4,0.5-0.7,0.9-1.2,1.2c-0.4,0.3-0.8,0.6-1.3,0.7c-0.4,0.2-0.9,0.3-1.4,0.3
		c-0.5,0.1-1,0.1-1.4,0.1c-1.2,0-2.1-0.2-3-0.6c-0.8-0.4-1.5-0.9-2-1.5s-0.9-1.3-1.1-2.1c-0.2-0.8-0.4-1.6-0.4-2.4
		c0-1,0.1-1.9,0.4-2.7c0.3-0.8,0.7-1.5,1.3-2.1s1.3-1.1,2.1-1.4c0.8-0.3,1.8-0.5,2.9-0.5c0.4,0,0.9,0,1.3,0.1c0.4,0,0.8,0.1,1.2,0.2
		c0.4,0.1,0.7,0.3,1.1,0.5c0.3,0.2,0.7,0.5,1,0.8l-1.9,2c-0.2-0.2-0.4-0.4-0.6-0.6c-0.2-0.2-0.4-0.3-0.6-0.4
		c-0.2-0.1-0.4-0.2-0.7-0.2c-0.2,0-0.5-0.1-0.8-0.1c-0.6,0-1.1,0.1-1.5,0.4c-0.4,0.3-0.8,0.6-1,1c-0.3,0.4-0.5,0.9-0.6,1.4
		s-0.2,1-0.2,1.5c0,0.6,0.1,1.3,0.2,1.8c0.1,0.6,0.3,1.1,0.6,1.5s0.6,0.8,1,1s0.9,0.4,1.5,0.4c0.3,0,0.5,0,0.8-0.1
		c0.3,0,0.5-0.1,0.7-0.3c0.2-0.1,0.5-0.3,0.7-0.5s0.5-0.5,0.7-0.9L175.1,55.5z"/>
	<path class="st0" d="M188.4,55.6c-0.5,0.5-1,1-1.4,1.3c-0.5,0.3-0.9,0.6-1.4,0.7c-0.5,0.2-0.9,0.3-1.4,0.3c-0.5,0.1-1,0.1-1.5,0.1
		c-1.1,0-2.1-0.2-2.8-0.6c-0.8-0.4-1.4-0.9-1.9-1.5s-0.9-1.4-1.1-2.2c-0.2-0.8-0.4-1.7-0.4-2.6c0-0.9,0.1-1.7,0.4-2.5
		c0.2-0.8,0.6-1.5,1.1-2.1s1.1-1.1,1.9-1.4c0.8-0.4,1.6-0.5,2.7-0.5c0.9,0,1.7,0.1,2.4,0.4c0.7,0.2,1.3,0.6,1.7,1.1
		c0.5,0.5,0.8,1,1,1.7s0.3,1.4,0.3,2.2c0,0.3,0,0.6,0,1c0,0.3-0.1,0.7-0.1,1h-8.1c0,0.4,0.1,0.8,0.2,1.2c0.1,0.4,0.3,0.9,0.6,1.3
		c0.3,0.4,0.6,0.7,1,1s0.8,0.4,1.3,0.4c0.4,0,0.8,0,1.1-0.1s0.6-0.2,0.9-0.3c0.3-0.1,0.5-0.3,0.8-0.6s0.5-0.5,0.8-0.9L188.4,55.6z
		 M182.4,46.9c-0.5,0-0.9,0.1-1.3,0.3c-0.3,0.2-0.6,0.4-0.8,0.7s-0.3,0.6-0.4,1c-0.1,0.4-0.1,0.7-0.1,1.1h5c0-0.3,0-0.7-0.1-1.1
		c0-0.4-0.2-0.7-0.3-1c-0.2-0.3-0.4-0.5-0.7-0.7C183.3,47,182.9,46.9,182.4,46.9z"/>
</g>
</svg>
