<?xml version="1.0" encoding="UTF-8"?>
<svg width="40px" height="40px" viewBox="0 0 40 40" version="1.1" xmlns="http://www.w3.org/2000/svg" xmlns:xlink="http://www.w3.org/1999/xlink">
    <!-- Generator: Sketch 52.2 (67145) - http://www.bohemiancoding.com/sketch -->
    <title>Group 5</title>
    <desc>Created with Sketch.</desc>
    <g id="Alliance-ShopEssentials" stroke="none" stroke-width="1" fill="none" fill-rule="evenodd" stroke-linecap="round" stroke-linejoin="round">
        <g id="ALLIANCE-SHOPPING-SpecificProduct" transform="translate(-858.000000, -1302.000000)" stroke="#FFFFFF" stroke-width="2">
            <g id="FOOTER" transform="translate(0.000000, 927.000000)">
                <g id="Refill-Reminders" transform="translate(859.000000, 345.000000)">
                    <g id="Group-5" transform="translate(0.000000, 31.000000)">
                        <path d="M19,5.92693278 C11.5317309,5.92693278 5.47742147,11.8975279 5.47742147,19.2625315 C5.47742147,26.6275352 11.5317309,32.5979445 19,32.5979445 C26.4682691,32.5979445 32.5223901,26.6275352 32.5223901,19.2625315 C32.5223901,14.6311631 30.1285499,10.5514267 26.4942686,8.16058751 L23.6704942,10.9455027 L23.6704942,0 L34.662264,1.6034304 L30.9529986,4.69676908 C35.2519634,8.13216053 38,13.3807475 38,19.2625315 C38,29.6108819 29.4932572,38 19,38 C8.50655442,38 0,29.6108819 0,19.2625315" id="Stroke-1"></path>
                        <polyline id="Stroke-3" points="19 12 19 19.8343155 23 24"></polyline>
                    </g>
                </g>
            </g>
        </g>
    </g>
</svg>