<svg id="RAW_ICONS_-_SQUARE_ROUNDED_CIRCLE" data-name="RAW ICONS - SQUARE / ROUNDED / CIRCLE" xmlns="http://www.w3.org/2000/svg" viewBox="0 0 32 32"><defs><style>.cls-1{fill:#fff;}</style></defs><title>twitter-icon</title><path class="cls-1" d="M436,382.87a16,16,0,1,0,16,16A16,16,0,0,0,436,382.87Zm6.36,12.74c0,.14,0,.28,0,.42A9.34,9.34,0,0,1,428,403.9a6.79,6.79,0,0,0,.78,0,6.6,6.6,0,0,0,4.08-1.4,3.3,3.3,0,0,1-3.07-2.28,3.18,3.18,0,0,0,.62.06,3,3,0,0,0,.86-.12A3.28,3.28,0,0,1,428.6,397v0a3.13,3.13,0,0,0,1.49.41,3.27,3.27,0,0,1-1.46-2.73,3.31,3.31,0,0,1,.44-1.65,9.32,9.32,0,0,0,6.77,3.43,3.08,3.08,0,0,1-.09-.75,3.28,3.28,0,0,1,5.68-2.24,6.62,6.62,0,0,0,2.09-.8,3.32,3.32,0,0,1-1.45,1.82,6.61,6.61,0,0,0,1.89-.52A6.63,6.63,0,0,1,442.32,395.61Z" transform="translate(-419.96 -382.87)"/></svg>