<svg viewBox="0 0 32 32" xmlns="http://www.w3.org/2000/svg"><g fill="#fff"><path d="m722.64 396.43a.42.42 0 0 0 .3-.1.38.38 0 0 0 .11-.28v-2.43a.29.29 0 0 0 -.12-.24.44.44 0 0 0 -.29-.09.4.4 0 0 0 -.27.09.3.3 0 0 0 -.1.24v2.43a.39.39 0 0 0 .09.28.37.37 0 0 0 .28.1z" transform="translate(-706.78 -382.87)"/><path d="m724.65 400.92a.74.74 0 0 0 -.37.1 1.27 1.27 0 0 0 -.35.28v-1.77h-.82v5.47h.82v-.31a1 1 0 0 0 .35.27.93.93 0 0 0 .42.09.65.65 0 0 0 .55-.23 1 1 0 0 0 .19-.65v-2.25a1.19 1.19 0 0 0 -.2-.76.7.7 0 0 0 -.59-.24zm0 3.15a.5.5 0 0 1 -.07.28.27.27 0 0 1 -.22.09.49.49 0 0 1 -.2-.05.54.54 0 0 1 -.19-.14v-2.52a.64.64 0 0 1 .17-.13.53.53 0 0 1 .17 0 .31.31 0 0 1 .25.11.46.46 0 0 1 .09.31z" transform="translate(-706.78 -382.87)"/><path d="m10.26 17.46h.94v4.69h.91v-4.69h.95v-.8h-2.8z"/><g transform="translate(-706.78 -382.87)"><path d="m721.7 404.05a1.71 1.71 0 0 1 -.25.22.57.57 0 0 1 -.23.08.22.22 0 0 1 -.17-.06.41.41 0 0 1 0-.21v-3.08h-.81v3.39a.83.83 0 0 0 .15.54.49.49 0 0 0 .42.18 1 1 0 0 0 .47-.13 1.74 1.74 0 0 0 .47-.37v.39h.81v-4h-.81z"/><path d="m722.78 382.87a16 16 0 1 0 16 16 16 16 0 0 0 -16-16zm1.93 9.76h.91v3.42a.35.35 0 0 0 .06.23.22.22 0 0 0 .19.07.54.54 0 0 0 .25-.09 1.05 1.05 0 0 0 .28-.24v-3.39h.91v4.46h-.91v-.49a2 2 0 0 1 -.52.42 1.2 1.2 0 0 1 -.53.14.6.6 0 0 1 -.48-.2 1 1 0 0 1 -.16-.6zm-3.38 1a1 1 0 0 1 .37-.82 1.45 1.45 0 0 1 1-.31 1.36 1.36 0 0 1 .92.32 1.09 1.09 0 0 1 .36.84v2.34a1.14 1.14 0 0 1 -.35.9 1.38 1.38 0 0 1 -1 .33 1.36 1.36 0 0 1 -.95-.34 1.2 1.2 0 0 1 -.36-.91zm-2.48-2.6.66 2.41h.07l.63-2.41h1l-1.19 3.54v2.5h-1v-2.37l-1.23-3.65zm11.93 12.72a2.93 2.93 0 0 1 -2.92 2.93h-10.15a2.93 2.93 0 0 1 -2.93-2.93v-2.35a2.93 2.93 0 0 1 2.93-2.92h10.15a2.92 2.92 0 0 1 2.92 2.92z"/><path d="m727.1 400.87a1.22 1.22 0 0 0 -.89.33 1.14 1.14 0 0 0 -.34.86v1.82a1.28 1.28 0 0 0 .31.92 1.12 1.12 0 0 0 .86.33 1.19 1.19 0 0 0 .9-.31 1.29 1.29 0 0 0 .31-.94v-.21h-.83v.19a.91.91 0 0 1 -.08.46.35.35 0 0 1 -.29.1.3.3 0 0 1 -.27-.12.9.9 0 0 1 -.08-.44v-.77h1.55v-1a1.2 1.2 0 0 0 -.3-.88 1.11 1.11 0 0 0 -.85-.34zm.32 1.59h-.72v-.41a.56.56 0 0 1 .09-.36.39.39 0 0 1 .54 0 .56.56 0 0 1 .09.36z"/></g></g></svg>